#!OML:ASF E:/inclinewalkrobotboard/Project1/Captureday1/Session1/subject1.ASF
:FULLY-SPECIFIED
:DEGREES
376
root 0 0 0 17.516991836500008 -4.22597585767369 -1.4287198371815828
lowerback 21.260143126694825 -3.2475485408399214 -1.1232406188389277
upperback -0.8662519945535898 -4.788212492833109 3.9173265007247577
thorax -12.663587008557297 -2.132605761771583 5.275728628915861
lowerneck -9.606129448942944 9.282380368957785 18.565040830728847
upperneck 21.466536373701892 10.864020790959835 -8.272014403852655
head 9.807775549689381 5.887951792449223 -4.608543805962576
rclavicle 1.421509732752724E-15 5.4720658284796794E-15
rhumerus 28.721787363468767 20.99398435153858 -74.86455358824172
rradius 109.84149498436285
rwrist -41.59151473229258
rhand -24.511157104273416 -23.559974959096948
rfingers 7.125019999999991
rthumb 2.0133210798404058 -53.98731384984155
lclavicle -3.4376987100418543E-15 5.744892303010454E-15
lhumerus 25.71542824669467 -35.847794425296456 73.75518461169654
lradius 142.29539142238735
lwrist 9.037457214850418
lhand -33.43114212646403 8.323449785610435
lfingers 7.125019999999938
lthumb -6.600772367337129 38.789715810639855
rfemur -48.08699443084487 3.141511509126307 29.86183411695201
rtibia 44.74184331272221
rfoot -22.249822469454003 -3.763004624512698
rtoes -43.602723119451475
lfemur -41.59140700218342 -19.84098643187081 -12.684662955260059
ltibia 19.331802335215077
lfoot -44.64509614409117 5.520296943701491
ltoes -35.093863108382266
377
root 0 0 0 17.518151549389692 -4.217120489860269 -1.43226473737196
lowerback 21.249787445320262 -3.2486632211204096 -1.1226922201228602
upperback -0.8691524927819962 -4.789378616795382 3.9186321335416405
thorax -12.660918336972538 -2.13303824554962 5.277583864584198
lowerneck -9.603959616220331 9.28221293804442 18.56539342600082
upperneck 21.473495271903218 10.863232532111471 -8.270358189826055
head 9.80946942531829 5.887886618970448 -4.608271782939006
rclavicle 1.4677338755740683E-15 5.5207387412639675E-15
rhumerus 28.6631239243546 21.1179341475821 -74.95015676672647
rradius 109.97116049808756
rwrist -41.61130302444761
rhand -24.506722876676612 -23.525032979997526
rfingers 7.125019999999991
rthumb 2.017460432078158 -53.95190813948672
lclavicle -3.3707682588247152E-15 5.798753493562437E-15
lhumerus 25.719684152272144 -35.79469360758724 73.7206044385855
lradius 142.26438413263708
lwrist 9.021498111404995
lhand -33.420873419386155 8.318528559085006
lfingers 7.125019999999938
lthumb -6.590794031414866 38.78412037325018
rfemur -47.81345834327233 3.0691962063254437 29.92323050248432
rtibia 44.63616596432699
rfoot -22.065252111855077 -3.7842523737795357
rtoes -43.72631486976202
lfemur -40.95955119611291 -20.206039415926153 -12.651878926253683
ltibia 18.29303535590557
lfoot -44.8537188312476 5.843190451285898
ltoes -34.95499508788965
378
root 0 0 0 17.51605033048332 -4.215307056511946 -1.4364690477939037
lowerback 21.245837804339953 -3.2500488974004877 -1.1246031830922285
upperback -0.870518873253399 -4.79162709422818 3.9172003223683083
thorax -12.659987111436054 -2.1340159766993017 5.277839238392479
lowerneck -9.602372339645253 9.28614078775072 18.569095603546028
upperneck 21.47647163024014 10.868475495304303 -8.270835648581361
head 9.810893432297245 5.890665491658086 -4.60856405660844
rclavicle 1.5062638414782842E-15 5.601439780210943E-15
rhumerus 28.62560183410838 21.115718614031326 -74.95835745736714
rradius 109.89994988884709
rwrist -41.55954543528246
rhand -24.50010111165482 -23.52092534718681
rfingers 7.125019999999991
rthumb 2.0240128747690065 -53.947210282020976
lclavicle -3.2877737302039145E-15 5.880466622929005E-15
lhumerus 25.73165919001061 -35.71058357401609 73.66231172073273
lradius 142.2166563482343
lwrist 8.99379427021544
lhand -33.406089459268294 8.309582832634538
lfingers 7.125019999999939
lthumb -6.576367997604667 38.77417746278585
rfemur -47.59493997449136 3.002500013703555 29.95420143432507
rtibia 44.54848001791967
rfoot -21.883919512599757 -3.809725550701671
rtoes -43.852429462758124
lfemur -40.16373345439099 -20.640066160843368 -12.633661324817055
ltibia 17.049577180520064
lfoot -45.079457723189556 6.215169304781433
ltoes -34.78617210032551
379
root 0 0 0 17.51061496118916 -4.221029131297055 -1.4408702855455675
lowerback 21.249144301642442 -3.2514942412980066 -1.1289446758306045
upperback -0.8701095080044192 -4.794679632424968 3.912964374787461
thorax -12.661014580479138 -2.1354183719365554 5.27630678617256
lowerneck -9.60162690979894 9.293914434339685 18.575829649335063
upperneck 21.474978231865986 10.879465917411386 -8.273521876580011
head 9.811913178909878 5.896113216001039 -4.609412357712554
rclavicle 1.5359531027166025E-15 5.709009170367055E-15
rhumerus 28.613618870727056 20.98424121283594 -74.88674281959248
rradius 109.62197386060534
rwrist -41.43613148241868
rhand -24.491923237788228 -23.548943332908095
rfingers 7.125019999999991
rthumb 2.03235729863197 -53.9745652502122
lclavicle -3.1938624030053594E-15 5.9847747720633165E-15
lhumerus 25.74994254706897 -35.60072728098896 73.58419946746753
lradius 142.15454016975445
lwrist 8.95605394227324
lhand -33.38740568267153 8.297308397335701
lfingers 7.125019999999939
lthumb -6.558092267928117 38.760627041191405
rfemur -47.46015349581779 2.94890707221073 29.948479484139224
rtibia 44.490121959597886
rfoot -21.725434597622165 -3.837032732537507
rtoes -43.96795245287683
lfemur -39.27550760327562 -21.102172370172696 -12.635585798894748
ltibia 15.722810475435317
lfoot -45.29743999652974 6.596704986139728
ltoes -34.602725532190256
380
root 0 0 0 17.502105445216863 -4.234103368884984 -1.4448724560287758
lowerback 21.259932303410718 -3.2527729093468842 -1.1354757047683255
upperback -0.8678128396078355 -4.798168292896903 3.9061280271242396
thorax -12.6640269613507 -2.1370776782436143 5.272977245334468
lowerneck -9.602021039909891 9.30483995358179 18.58486770613607
upperneck 21.46890795094164 10.895268923738103 -8.278254153606053
head 9.812413570411856 5.903739207897975 -4.610738358771993
rclavicle 1.5538019647415082E-15 5.833639908738613E-15
rhumerus 28.630023528987 20.728181752683035 -74.73842031161539
rradius 109.14079114462847
rwrist -41.244952936632934
rhand -24.4828441825002 -23.607720093711983
rfingers 7.125019999999992
rthumb 2.0418261629496204 -54.03265821103453
lclavicle -3.096937800975801E-15 6.102517935495056E-15
lhumerus 25.772258961291968 -35.47419873193089 73.49300148069952
lradius 142.08243905122342
lwrist 8.911353976145225
lhand -33.366049550690775 8.282865177515932
lfingers 7.12501999999994
lthumb -6.537166626423202 38.74471484169784
rfemur -47.43522210502276 2.9170474707246647 29.90297523073252
rtibia 44.47108690340505
rfoot -21.612009946584237 -3.86321081188102
rtoes -44.057582358416965
lfemur -38.38578870881284 -21.545101664834398 -12.660429645940823
ltibia 14.454734710177387
lfoot -45.48400025423247 6.944510876185043
ltoes -34.421824866847
